<?xml version="1.0" encoding="utf-8"?>
<!-- Generator: Adobe Illustrator 15.1.0, SVG Export Plug-In . SVG Version: 6.00 Build 0)  -->
<!DOCTYPE svg PUBLIC "-//W3C//DTD SVG 1.1//EN" "http://www.w3.org/Graphics/SVG/1.1/DTD/svg11.dtd">
<svg version="1.1" id="Layer_1" xmlns="http://www.w3.org/2000/svg" xmlns:xlink="http://www.w3.org/1999/xlink" x="0px" y="0px"
	 width="319.89px" height="265.27px" viewBox="0 0 319.89 265.27" enable-background="new 0 0 319.89 265.27" xml:space="preserve">
<path fill-rule="evenodd" clip-rule="evenodd" fill="#C5C5C7" d="M316.107,52.374L0.001,222.852v-68.713L283.604,1.18
	c1.469-0.79,3.01-1.183,4.605-1.183c1.594,0,3.152,0.394,4.604,1.183l23.313,12.614c2.348,1.255,3.764,3.62,3.764,6.29v25.981
	C319.889,48.736,318.473,51.101,316.107,52.374z"/>
<path fill-rule="evenodd" clip-rule="evenodd" fill="#E0001A" d="M146.819,185.969L0.001,265.271v-14.773l139.833-75.531
	c0.315-0.168,0.646-0.254,0.989-0.254s0.678,0.086,0.99,0.254l5.01,2.711c0.504,0.27,0.809,0.779,0.809,1.352v5.584
	C147.632,185.188,147.327,185.695,146.819,185.969z"/>
<path fill-rule="evenodd" clip-rule="evenodd" fill="#858688" d="M33.255,58.415L0.001,76.349V37.997l15.113-8.151
	c0.82-0.44,1.681-0.66,2.57-0.66s1.76,0.22,2.57,0.66l13.01,7.04c1.31,0.7,2.1,2.02,2.1,3.51v14.5
	C35.364,56.385,34.574,57.706,33.255,58.415z"/>
</svg>
