<?xml version="1.0" encoding="utf-8"?>
<!-- Generator: Adobe Illustrator 15.1.0, SVG Export Plug-In . SVG Version: 6.00 Build 0)  -->
<!DOCTYPE svg PUBLIC "-//W3C//DTD SVG 1.1//EN" "http://www.w3.org/Graphics/SVG/1.1/DTD/svg11.dtd">
<svg version="1.1" id="Layer_1" xmlns="http://www.w3.org/2000/svg" xmlns:xlink="http://www.w3.org/1999/xlink" x="0px" y="0px"
	 width="320.28px" height="228.6px" viewBox="0 0 320.28 228.6" enable-background="new 0 0 320.28 228.6" xml:space="preserve">
<path fill-rule="evenodd" clip-rule="evenodd" fill="#C5C5C7" d="M320.279,68.716L55.626,211.443
	c-1.452,0.809-3.011,1.201-4.605,1.201c-1.596,0-3.137-0.393-4.604-1.182l-23.295-12.615c-2.365-1.271-3.763-3.619-3.763-6.307
	v-25.965c0-2.688,1.397-5.035,3.763-6.309L320.279-0.001V68.716z"/>
<path fill-rule="evenodd" clip-rule="evenodd" fill="#D7D9DA" d="M225.263,104.38v5.584c0,0.574-0.305,1.082-0.813,1.354
	L7.795,228.344c-0.312,0.172-0.646,0.258-0.989,0.258s-0.674-0.086-0.989-0.254l-5.007-2.711c-0.508-0.275-0.809-0.779-0.809-1.357
	v-5.58c0-0.576,0.301-1.08,0.809-1.354l216.655-117.028c0.315-0.169,0.646-0.254,0.989-0.254s0.678,0.085,0.99,0.254l5.01,2.71
	C224.958,103.298,225.263,103.807,225.263,104.38"/>
</svg>
