<?xml version="1.0" encoding="utf-8"?>
<!-- Generator: Adobe Illustrator 15.1.0, SVG Export Plug-In . SVG Version: 6.00 Build 0)  -->
<!DOCTYPE svg PUBLIC "-//W3C//DTD SVG 1.1//EN" "http://www.w3.org/Graphics/SVG/1.1/DTD/svg11.dtd">
<svg version="1.1" id="Layer_1" xmlns="http://www.w3.org/2000/svg" xmlns:xlink="http://www.w3.org/1999/xlink" x="0px" y="0px"
	 width="221.61px" height="238.92px" viewBox="0 0 221.61 238.92" enable-background="new 0 0 221.61 238.92" xml:space="preserve">
<path fill-rule="evenodd" clip-rule="evenodd" fill="#C5C5C7" d="M117.254,29.433L0,92.668V54.319L99.113,0.863
	c0.82-0.44,1.681-0.66,2.57-0.66s1.76,0.22,2.57,0.66l13.01,7.04c1.31,0.7,2.1,2.02,2.1,3.51v14.5
	C119.363,27.402,118.573,28.723,117.254,29.433z"/>
<path fill-rule="evenodd" clip-rule="evenodd" fill="#DDDDDE" d="M217.843,64.892L0,182.383v-68.715l185.339-99.954
	c1.452-0.806,3.01-1.199,4.604-1.199c1.596,0,3.137,0.393,4.605,1.182l23.294,12.617c2.365,1.27,3.763,3.618,3.763,6.305v25.964
	C221.605,61.271,220.208,63.618,217.843,64.892z"/>
<path fill-rule="evenodd" clip-rule="evenodd" fill="#C5C5C7" d="M127.177,170.422L0,239.117v-14.772l120.192-64.921
	c0.311-0.172,0.646-0.258,0.989-0.258c0.343,0,0.675,0.086,0.989,0.254l5.006,2.711c0.509,0.275,0.81,0.779,0.81,1.357v5.579
	C127.986,169.645,127.686,170.148,127.177,170.422z"/>
</svg>
