<?xml version="1.0" encoding="utf-8"?>
<!-- Generator: Adobe Illustrator 15.1.0, SVG Export Plug-In . SVG Version: 6.00 Build 0)  -->
<!DOCTYPE svg PUBLIC "-//W3C//DTD SVG 1.1//EN" "http://www.w3.org/Graphics/SVG/1.1/DTD/svg11.dtd">
<svg version="1.1" id="Layer_1" xmlns="http://www.w3.org/2000/svg" xmlns:xlink="http://www.w3.org/1999/xlink" x="0px" y="0px"
	 width="219.88px" height="311.16px" viewBox="0 0 219.88 311.16" enable-background="new 0 0 219.88 311.16" xml:space="preserve">
<path fill-rule="evenodd" clip-rule="evenodd" fill="#E6E6E6" d="M219.88,277.871l-52.316,28.495
	c-5.907,3.183-12.155,4.794-18.583,4.794c-6.429,0-12.677-1.611-18.571-4.789l-94.002-50.863
	c-9.49-5.102-15.168-14.602-15.168-25.404V125.332c0-10.8,5.678-20.301,15.188-25.414L219.88-0.002V277.871z"/>
<path fill-rule="evenodd" clip-rule="evenodd" fill="#C5C5C7" d="M219.88,76.942L20.239,184.609c-0.81,0.449-1.68,0.67-2.57,0.67
	c-0.89,0-1.75-0.221-2.57-0.66l-13-7.041c-1.32-0.709-2.1-2.02-2.1-3.52V159.57c0-1.5,0.78-2.811,2.1-3.521L219.88,38.59V76.942z"/>
<path fill-rule="evenodd" clip-rule="evenodd" fill="#DDDDDE" d="M219.88,223.443L102.829,286.57
	c-1.452,0.805-3.011,1.201-4.605,1.201c-1.595,0-3.136-0.396-4.605-1.184l-23.295-12.614c-2.365-1.274-3.762-3.62-3.762-6.309V241.7
	c0-2.687,1.397-5.034,3.762-6.307l149.556-80.661V223.443z"/>
</svg>
