<?xml version="1.0" encoding="utf-8"?>
<!-- Generator: Adobe Illustrator 15.1.0, SVG Export Plug-In . SVG Version: 6.00 Build 0)  -->
<!DOCTYPE svg PUBLIC "-//W3C//DTD SVG 1.1//EN" "http://www.w3.org/Graphics/SVG/1.1/DTD/svg11.dtd">
<svg version="1.1" id="Layer_1" xmlns="http://www.w3.org/2000/svg" xmlns:xlink="http://www.w3.org/1999/xlink" x="0px" y="0px"
	 width="351.08px" height="170.98px" viewBox="0 0 351.08 170.98" enable-background="new 0 0 351.08 170.98" xml:space="preserve">
<path fill-rule="evenodd" clip-rule="evenodd" fill="#C5C5C7" d="M36.341,169.805c-1.452,0.808-3.011,1.2-4.605,1.2
	c-1.596,0-3.137-0.393-4.604-1.183L3.836,157.207c-2.365-1.271-3.763-3.618-3.763-6.306v-25.964c0-2.689,1.397-5.035,3.763-6.309
	L223.735,0.027h127.414L36.341,169.805z"/>
<path fill-rule="evenodd" clip-rule="evenodd" fill="#D7D9DA" d="M56.51,65.704c-0.312,0.173-0.646,0.257-0.989,0.257
	s-0.674-0.084-0.989-0.253l-5.007-2.712c-0.508-0.274-0.809-0.778-0.809-1.356v-5.58c0-0.577,0.301-1.082,0.809-1.354L150.751,0.027
	H178.1L56.51,65.704z"/>
</svg>
