<?xml version="1.0" encoding="utf-8"?>
<!-- Generator: Adobe Illustrator 15.1.0, SVG Export Plug-In . SVG Version: 6.00 Build 0)  -->
<!DOCTYPE svg PUBLIC "-//W3C//DTD SVG 1.1//EN" "http://www.w3.org/Graphics/SVG/1.1/DTD/svg11.dtd">
<svg version="1.1" id="Layer_1" xmlns="http://www.w3.org/2000/svg" xmlns:xlink="http://www.w3.org/1999/xlink" x="0px" y="0px"
	 width="112.02px" height="54.52px" viewBox="0 0 112.02 54.52" enable-background="new 0 0 112.02 54.52" xml:space="preserve">
<path fill="#333333" d="M109.964,8.655c-0.973,0.385-1.963,0.75-2.965,1.1C100.585,7.412,94.605,4.32,88.95,0.381
	c-0.957-0.666-2.647,0.052-2.358,1.368c0.922,4.196,1.936,8.365,3.034,12.51C56.375,20.715,16.41,20.071,0.1,53.443
	c-0.517,1.057,1.149,1.719,1.677,0.691C18.193,22.164,57.591,23.046,90.37,16.964c0.941,3.423,1.928,6.834,2.991,10.227
	c0.325,1.034,1.966,1.227,2.539,0.319c3.457-5.459,7.628-10.122,12.598-14.107c0.108,0.036,0.215,0.077,0.323,0.111
	c1.31,0.424,2.263-0.899,1.999-1.881c0.208-0.15,0.406-0.312,0.619-0.459C112.823,10.197,111.478,8.055,109.964,8.655 M90.324,4.829
	c3.905,2.469,7.968,4.588,12.216,6.357c-3.238,0.953-6.593,1.769-10.032,2.493C91.729,10.743,91.011,7.789,90.324,4.829 M103.28,14
	c-2.989,2.778-5.669,5.833-8.051,9.213c-0.684-2.261-1.34-4.532-1.967-6.808C96.699,15.712,100.05,14.925,103.28,14"/>
</svg>
